<mxfile>
    <diagram id="ZylNULEKewrbNQrBSCHD" name="fragment">
        <mxGraphModel dx="625" dy="533" grid="0" gridSize="10" guides="1" tooltips="1" connect="1" arrows="1" fold="1" page="1" pageScale="1" pageWidth="827" pageHeight="1169" math="0" shadow="0">
            <root>
                <mxCell id="xda2xfujjt2gtjd7kgps-0"/>
                <mxCell id="xda2xfujjt2gtjd7kgps-1" parent="xda2xfujjt2gtjd7kgps-0"/>
                <mxCell id="xda2xfujjt2gtjd7kgps-2" value="" style="rounded=0;whiteSpace=wrap;html=1;dashed=1;" vertex="1" parent="xda2xfujjt2gtjd7kgps-1">
                    <mxGeometry x="86.5" y="258" width="100" height="237" as="geometry"/>
                </mxCell>
                <mxCell id="xda2xfujjt2gtjd7kgps-6" value="" style="rounded=0;whiteSpace=wrap;html=1;fillColor=#fff2cc;strokeColor=#d6b656;" vertex="1" parent="xda2xfujjt2gtjd7kgps-1">
                    <mxGeometry x="262.5" y="328" width="25" height="36" as="geometry"/>
                </mxCell>
                <mxCell id="xda2xfujjt2gtjd7kgps-7" value="" style="rounded=0;whiteSpace=wrap;html=1;fillColor=#f8cecc;strokeColor=#b85450;" vertex="1" parent="xda2xfujjt2gtjd7kgps-1">
                    <mxGeometry x="86.5" y="147" width="25" height="36" as="geometry"/>
                </mxCell>
                <mxCell id="xda2xfujjt2gtjd7kgps-8" value="header" style="text;html=1;align=center;verticalAlign=middle;resizable=0;points=[];autosize=1;" vertex="1" parent="xda2xfujjt2gtjd7kgps-1">
                    <mxGeometry x="111.5" y="155" width="50" height="20" as="geometry"/>
                </mxCell>
                <mxCell id="xda2xfujjt2gtjd7kgps-9" value="" style="rounded=0;whiteSpace=wrap;html=1;fillColor=#fff2cc;strokeColor=#d6b656;" vertex="1" parent="xda2xfujjt2gtjd7kgps-1">
                    <mxGeometry x="181.5" y="147" width="25" height="36" as="geometry"/>
                </mxCell>
                <mxCell id="xda2xfujjt2gtjd7kgps-10" value="payload" style="text;html=1;align=center;verticalAlign=middle;resizable=0;points=[];autosize=1;" vertex="1" parent="xda2xfujjt2gtjd7kgps-1">
                    <mxGeometry x="201.5" y="155" width="60" height="20" as="geometry"/>
                </mxCell>
                <mxCell id="xda2xfujjt2gtjd7kgps-11" value="" style="group" vertex="1" connectable="0" parent="xda2xfujjt2gtjd7kgps-1">
                    <mxGeometry x="99" y="274" width="75" height="36" as="geometry"/>
                </mxCell>
                <mxCell id="xda2xfujjt2gtjd7kgps-3" value="" style="rounded=0;whiteSpace=wrap;html=1;fillColor=#f8cecc;strokeColor=#b85450;" vertex="1" parent="xda2xfujjt2gtjd7kgps-11">
                    <mxGeometry width="25" height="36" as="geometry"/>
                </mxCell>
                <mxCell id="xda2xfujjt2gtjd7kgps-4" value="" style="rounded=0;whiteSpace=wrap;html=1;fillColor=#f8cecc;strokeColor=#b85450;" vertex="1" parent="xda2xfujjt2gtjd7kgps-11">
                    <mxGeometry x="25" width="25" height="36" as="geometry"/>
                </mxCell>
                <mxCell id="xda2xfujjt2gtjd7kgps-5" value="" style="rounded=0;whiteSpace=wrap;html=1;fillColor=#fff2cc;strokeColor=#d6b656;" vertex="1" parent="xda2xfujjt2gtjd7kgps-11">
                    <mxGeometry x="50" width="25" height="36" as="geometry"/>
                </mxCell>
                <mxCell id="xda2xfujjt2gtjd7kgps-12" value="&lt;span&gt;&lt;b&gt;SKB&lt;/b&gt;&lt;/span&gt;" style="text;html=1;align=center;verticalAlign=middle;resizable=0;points=[];autosize=1;" vertex="1" parent="xda2xfujjt2gtjd7kgps-1">
                    <mxGeometry x="79" y="241" width="35" height="17" as="geometry"/>
                </mxCell>
                <mxCell id="xda2xfujjt2gtjd7kgps-13" value="" style="rounded=0;whiteSpace=wrap;html=1;fillColor=#fff2cc;strokeColor=#d6b656;" vertex="1" parent="xda2xfujjt2gtjd7kgps-1">
                    <mxGeometry x="287.5" y="328" width="25" height="36" as="geometry"/>
                </mxCell>
                <mxCell id="xda2xfujjt2gtjd7kgps-14" value="" style="rounded=0;whiteSpace=wrap;html=1;fillColor=#fff2cc;strokeColor=#d6b656;" vertex="1" parent="xda2xfujjt2gtjd7kgps-1">
                    <mxGeometry x="312.5" y="328" width="25" height="36" as="geometry"/>
                </mxCell>
                <mxCell id="xda2xfujjt2gtjd7kgps-16" value="linear" style="text;html=1;align=center;verticalAlign=middle;resizable=0;points=[];autosize=1;fontStyle=1;fontColor=#FF3399;" vertex="1" parent="xda2xfujjt2gtjd7kgps-1">
                    <mxGeometry x="196" y="328" width="42" height="17" as="geometry"/>
                </mxCell>
                <mxCell id="xda2xfujjt2gtjd7kgps-17" value="nonlinear" style="text;html=1;align=center;verticalAlign=middle;resizable=0;points=[];autosize=1;fontStyle=1;fontColor=#FF9933;" vertex="1" parent="xda2xfujjt2gtjd7kgps-1">
                    <mxGeometry x="192" y="382" width="64" height="17" as="geometry"/>
                </mxCell>
                <mxCell id="xda2xfujjt2gtjd7kgps-20" style="edgeStyle=orthogonalEdgeStyle;rounded=0;orthogonalLoop=1;jettySize=auto;html=1;exitX=1;exitY=0.5;exitDx=0;exitDy=0;entryX=0;entryY=0.5;entryDx=0;entryDy=0;endArrow=open;endFill=0;" edge="1" parent="xda2xfujjt2gtjd7kgps-1" source="xda2xfujjt2gtjd7kgps-19" target="xda2xfujjt2gtjd7kgps-6">
                    <mxGeometry relative="1" as="geometry"/>
                </mxCell>
                <mxCell id="xda2xfujjt2gtjd7kgps-19" value="frag_list" style="rounded=0;whiteSpace=wrap;html=1;" vertex="1" parent="xda2xfujjt2gtjd7kgps-1">
                    <mxGeometry x="99" y="328" width="75" height="36" as="geometry"/>
                </mxCell>
                <mxCell id="xda2xfujjt2gtjd7kgps-32" style="edgeStyle=orthogonalEdgeStyle;rounded=0;orthogonalLoop=1;jettySize=auto;html=1;exitX=1;exitY=0.25;exitDx=0;exitDy=0;entryX=0;entryY=0.25;entryDx=0;entryDy=0;endArrow=open;endFill=0;" edge="1" parent="xda2xfujjt2gtjd7kgps-1" source="xda2xfujjt2gtjd7kgps-21" target="xda2xfujjt2gtjd7kgps-23">
                    <mxGeometry relative="1" as="geometry">
                        <Array as="points">
                            <mxPoint x="311" y="401"/>
                            <mxPoint x="311" y="439"/>
                        </Array>
                    </mxGeometry>
                </mxCell>
                <mxCell id="xda2xfujjt2gtjd7kgps-21" value="" style="rounded=0;whiteSpace=wrap;html=1;dashed=1;" vertex="1" parent="xda2xfujjt2gtjd7kgps-1">
                    <mxGeometry x="99" y="399" width="75" height="8" as="geometry"/>
                </mxCell>
                <mxCell id="xda2xfujjt2gtjd7kgps-22" value="" style="whiteSpace=wrap;html=1;aspect=fixed;dashed=1;" vertex="1" parent="xda2xfujjt2gtjd7kgps-1">
                    <mxGeometry x="225" y="420" width="75" height="75" as="geometry"/>
                </mxCell>
                <mxCell id="xda2xfujjt2gtjd7kgps-23" value="" style="whiteSpace=wrap;html=1;aspect=fixed;dashed=1;" vertex="1" parent="xda2xfujjt2gtjd7kgps-1">
                    <mxGeometry x="327" y="420" width="75" height="75" as="geometry"/>
                </mxCell>
                <mxCell id="xda2xfujjt2gtjd7kgps-25" value="&lt;span style=&quot;color: rgb(0, 0, 0); font-family: helvetica; font-size: 12px; font-style: normal; font-weight: 400; letter-spacing: normal; text-align: center; text-indent: 0px; text-transform: none; word-spacing: 0px; background-color: rgb(248, 249, 250); display: inline; float: none;&quot;&gt;fragments&lt;/span&gt;" style="text;whiteSpace=wrap;html=1;" vertex="1" parent="xda2xfujjt2gtjd7kgps-1">
                    <mxGeometry x="106.99592224121093" y="372" width="73" height="27" as="geometry"/>
                </mxCell>
                <mxCell id="xda2xfujjt2gtjd7kgps-33" style="edgeStyle=orthogonalEdgeStyle;rounded=0;orthogonalLoop=1;jettySize=auto;html=1;exitX=1;exitY=0.5;exitDx=0;exitDy=0;entryX=0;entryY=0.25;entryDx=0;entryDy=0;endArrow=open;endFill=0;" edge="1" parent="xda2xfujjt2gtjd7kgps-1" source="xda2xfujjt2gtjd7kgps-26" target="xda2xfujjt2gtjd7kgps-22">
                    <mxGeometry relative="1" as="geometry"/>
                </mxCell>
                <mxCell id="xda2xfujjt2gtjd7kgps-26" value="" style="rounded=0;whiteSpace=wrap;html=1;dashed=1;" vertex="1" parent="xda2xfujjt2gtjd7kgps-1">
                    <mxGeometry x="99" y="407" width="75" height="8" as="geometry"/>
                </mxCell>
                <mxCell id="xda2xfujjt2gtjd7kgps-30" value="page" style="text;html=1;align=center;verticalAlign=middle;resizable=0;points=[];autosize=1;" vertex="1" parent="xda2xfujjt2gtjd7kgps-1">
                    <mxGeometry x="219" y="403" width="37" height="17" as="geometry"/>
                </mxCell>
                <mxCell id="xda2xfujjt2gtjd7kgps-31" value="page" style="text;html=1;align=center;verticalAlign=middle;resizable=0;points=[];autosize=1;" vertex="1" parent="xda2xfujjt2gtjd7kgps-1">
                    <mxGeometry x="327" y="402.5" width="37" height="17" as="geometry"/>
                </mxCell>
                <mxCell id="xda2xfujjt2gtjd7kgps-36" value="" style="rounded=0;whiteSpace=wrap;html=1;dashed=1;fillColor=#fff2cc;strokeColor=#d6b656;" vertex="1" parent="xda2xfujjt2gtjd7kgps-1">
                    <mxGeometry x="225" y="439" width="75" height="8" as="geometry"/>
                </mxCell>
                <mxCell id="xda2xfujjt2gtjd7kgps-37" value="" style="rounded=0;whiteSpace=wrap;html=1;dashed=1;fillColor=#fff2cc;strokeColor=#d6b656;" vertex="1" parent="xda2xfujjt2gtjd7kgps-1">
                    <mxGeometry x="327" y="439" width="75" height="8" as="geometry"/>
                </mxCell>
                <mxCell id="xda2xfujjt2gtjd7kgps-38" value="" style="rounded=0;whiteSpace=wrap;html=1;dashed=1;fillColor=#fff2cc;strokeColor=#d6b656;" vertex="1" parent="xda2xfujjt2gtjd7kgps-1">
                    <mxGeometry x="327" y="458" width="75" height="8" as="geometry"/>
                </mxCell>
                <mxCell id="xda2xfujjt2gtjd7kgps-42" value="share page" style="edgeStyle=orthogonalEdgeStyle;rounded=0;orthogonalLoop=1;jettySize=auto;html=1;exitX=0.5;exitY=1;exitDx=0;exitDy=0;entryX=1;entryY=0.5;entryDx=0;entryDy=0;endArrow=open;endFill=0;" edge="1" parent="xda2xfujjt2gtjd7kgps-1" source="xda2xfujjt2gtjd7kgps-40" target="xda2xfujjt2gtjd7kgps-23">
                    <mxGeometry relative="1" as="geometry"/>
                </mxCell>
                <mxCell id="xda2xfujjt2gtjd7kgps-40" value="&lt;b&gt;···&lt;/b&gt;" style="rounded=0;whiteSpace=wrap;html=1;dashed=1;" vertex="1" parent="xda2xfujjt2gtjd7kgps-1">
                    <mxGeometry x="414" y="258" width="100" height="28" as="geometry"/>
                </mxCell>
                <mxCell id="xda2xfujjt2gtjd7kgps-41" value="" style="group" vertex="1" connectable="0" parent="xda2xfujjt2gtjd7kgps-1">
                    <mxGeometry x="396" y="235.5" width="57" height="28" as="geometry"/>
                </mxCell>
                <mxCell id="xda2xfujjt2gtjd7kgps-39" value="&lt;span&gt;&lt;b&gt;SKB&lt;/b&gt;&lt;/span&gt;" style="text;html=1;align=center;verticalAlign=middle;resizable=0;points=[];autosize=1;" vertex="1" parent="xda2xfujjt2gtjd7kgps-41">
                    <mxGeometry x="11" y="5" width="35" height="17" as="geometry"/>
                </mxCell>
            </root>
        </mxGraphModel>
    </diagram>
    <diagram id="vMNS4up2YXgwOcGHacVV" name="zerocopy">
        <mxGraphModel dx="750" dy="639" grid="1" gridSize="10" guides="1" tooltips="1" connect="1" arrows="1" fold="1" page="1" pageScale="1" pageWidth="827" pageHeight="1169" math="0" shadow="0">
            <root>
                <mxCell id="0"/>
                <mxCell id="1" parent="0"/>
                <mxCell id="15" value="&lt;font color=&quot;#ff8000&quot;&gt;I. DMA&lt;/font&gt;" style="edgeStyle=orthogonalEdgeStyle;rounded=0;orthogonalLoop=1;jettySize=auto;html=1;exitX=0.5;exitY=0;exitDx=0;exitDy=0;entryX=0.5;entryY=1;entryDx=0;entryDy=0;endArrow=open;endFill=0;dashed=1;strokeColor=#FF8000;" parent="1" source="2" target="7" edge="1">
                    <mxGeometry relative="1" as="geometry"/>
                </mxCell>
                <mxCell id="2" value="Device" style="rounded=0;whiteSpace=wrap;html=1;" parent="1" vertex="1">
                    <mxGeometry x="200" y="400" width="100" height="36" as="geometry"/>
                </mxCell>
                <mxCell id="16" value="&lt;font color=&quot;#ff8000&quot;&gt;II. CPU COPY&lt;/font&gt;" style="edgeStyle=orthogonalEdgeStyle;rounded=0;orthogonalLoop=1;jettySize=auto;html=1;exitX=0.5;exitY=0;exitDx=0;exitDy=0;entryX=0;entryY=0.5;entryDx=0;entryDy=0;endArrow=open;endFill=0;dashed=1;strokeColor=#FF8000;" parent="1" source="7" target="8" edge="1">
                    <mxGeometry relative="1" as="geometry"/>
                </mxCell>
                <mxCell id="7" value="Kernal Buffer" style="rounded=0;whiteSpace=wrap;html=1;" parent="1" vertex="1">
                    <mxGeometry x="200" y="300" width="100" height="36" as="geometry"/>
                </mxCell>
                <mxCell id="23" value="&lt;font color=&quot;#001dbc&quot;&gt;III. CPU COPY&lt;/font&gt;" style="edgeStyle=orthogonalEdgeStyle;rounded=0;orthogonalLoop=1;jettySize=auto;html=1;exitX=1;exitY=0.5;exitDx=0;exitDy=0;entryX=0.5;entryY=0;entryDx=0;entryDy=0;dashed=1;endArrow=open;endFill=0;strokeColor=#001DBC;" parent="1" source="8" target="13" edge="1">
                    <mxGeometry relative="1" as="geometry"/>
                </mxCell>
                <mxCell id="8" value="User Buffer" style="rounded=0;whiteSpace=wrap;html=1;" parent="1" vertex="1">
                    <mxGeometry x="300" y="200" width="100" height="36" as="geometry"/>
                </mxCell>
                <mxCell id="27" value="&lt;font color=&quot;#001dbc&quot;&gt;IV. DMA&lt;/font&gt;" style="edgeStyle=orthogonalEdgeStyle;rounded=0;orthogonalLoop=1;jettySize=auto;html=1;exitX=0.5;exitY=1;exitDx=0;exitDy=0;entryX=0.5;entryY=0;entryDx=0;entryDy=0;dashed=1;endArrow=open;endFill=0;strokeColor=#001DBC;" parent="1" source="13" target="14" edge="1">
                    <mxGeometry relative="1" as="geometry"/>
                </mxCell>
                <mxCell id="13" value="SKB" style="rounded=0;whiteSpace=wrap;html=1;" parent="1" vertex="1">
                    <mxGeometry x="414" y="300" width="100" height="36" as="geometry"/>
                </mxCell>
                <mxCell id="14" value="Network Device" style="rounded=0;whiteSpace=wrap;html=1;" parent="1" vertex="1">
                    <mxGeometry x="414" y="400" width="100" height="36" as="geometry"/>
                </mxCell>
                <mxCell id="18" value="" style="endArrow=none;html=1;dashed=1;fillColor=#f8cecc;strokeColor=#FF8000;" parent="1" edge="1">
                    <mxGeometry width="50" height="50" relative="1" as="geometry">
                        <mxPoint x="110" y="140" as="sourcePoint"/>
                        <mxPoint x="160" y="140" as="targetPoint"/>
                    </mxGeometry>
                </mxCell>
                <mxCell id="19" value="&lt;font color=&quot;#ff8000&quot;&gt;Read&lt;/font&gt;" style="text;html=1;align=center;verticalAlign=middle;resizable=0;points=[];autosize=1;" parent="1" vertex="1">
                    <mxGeometry x="160" y="130" width="40" height="20" as="geometry"/>
                </mxCell>
                <mxCell id="20" value="" style="endArrow=none;html=1;dashed=1;fillColor=#f8cecc;strokeColor=#001DBC;" parent="1" edge="1">
                    <mxGeometry width="50" height="50" relative="1" as="geometry">
                        <mxPoint x="250" y="140" as="sourcePoint"/>
                        <mxPoint x="300" y="140" as="targetPoint"/>
                    </mxGeometry>
                </mxCell>
                <mxCell id="21" value="&lt;font color=&quot;#001dbc&quot;&gt;Write&lt;/font&gt;" style="text;html=1;align=center;verticalAlign=middle;resizable=0;points=[];autosize=1;" parent="1" vertex="1">
                    <mxGeometry x="300" y="130" width="40" height="20" as="geometry"/>
                </mxCell>
                <mxCell id="24" value="" style="endArrow=none;dashed=1;html=1;dashPattern=1 3;strokeWidth=2;" parent="1" edge="1">
                    <mxGeometry width="50" height="50" relative="1" as="geometry">
                        <mxPoint x="110" y="270" as="sourcePoint"/>
                        <mxPoint x="610" y="270" as="targetPoint"/>
                    </mxGeometry>
                </mxCell>
                <mxCell id="25" value="User Context" style="text;html=1;align=center;verticalAlign=middle;resizable=0;points=[];autosize=1;fontStyle=1" parent="1" vertex="1">
                    <mxGeometry x="100" y="250" width="90" height="20" as="geometry"/>
                </mxCell>
                <mxCell id="26" value="Kernal Context" style="text;html=1;align=center;verticalAlign=middle;resizable=0;points=[];autosize=1;fontStyle=1" parent="1" vertex="1">
                    <mxGeometry x="100" y="270" width="100" height="20" as="geometry"/>
                </mxCell>
                <mxCell id="32" value="&lt;font color=&quot;#ff8000&quot;&gt;I. DMA&lt;/font&gt;" style="edgeStyle=orthogonalEdgeStyle;rounded=0;orthogonalLoop=1;jettySize=auto;html=1;exitX=0.5;exitY=0;exitDx=0;exitDy=0;entryX=0.5;entryY=1;entryDx=0;entryDy=0;endArrow=open;endFill=0;dashed=1;strokeColor=#FF8000;" parent="1" source="33" target="34" edge="1">
                    <mxGeometry relative="1" as="geometry"/>
                </mxCell>
                <mxCell id="33" value="Device" style="rounded=0;whiteSpace=wrap;html=1;" parent="1" vertex="1">
                    <mxGeometry x="200" y="725" width="100" height="36" as="geometry"/>
                </mxCell>
                <mxCell id="34" value="Kernal Buffer" style="rounded=0;whiteSpace=wrap;html=1;" parent="1" vertex="1">
                    <mxGeometry x="200" y="625" width="100" height="36" as="geometry"/>
                </mxCell>
                <mxCell id="35" value="&lt;font color=&quot;#001dbc&quot;&gt;II. DMA&lt;/font&gt;" style="edgeStyle=orthogonalEdgeStyle;rounded=0;orthogonalLoop=1;jettySize=auto;html=1;entryX=0.5;entryY=0;entryDx=0;entryDy=0;dashed=1;endArrow=open;endFill=0;strokeColor=#001DBC;exitX=1;exitY=0.75;exitDx=0;exitDy=0;" parent="1" target="37" edge="1" source="34">
                    <mxGeometry relative="1" as="geometry">
                        <mxPoint x="300" y="643" as="sourcePoint"/>
                        <Array as="points">
                            <mxPoint x="360" y="652"/>
                            <mxPoint x="360" y="690"/>
                            <mxPoint x="470" y="690"/>
                        </Array>
                    </mxGeometry>
                </mxCell>
                <mxCell id="38" value="&lt;font color=&quot;#00cc00&quot;&gt;pointer&lt;/font&gt;" style="edgeStyle=orthogonalEdgeStyle;rounded=0;orthogonalLoop=1;jettySize=auto;html=1;exitX=0;exitY=0.25;exitDx=0;exitDy=0;entryX=1;entryY=0.25;entryDx=0;entryDy=0;dashed=1;endArrow=open;endFill=0;strokeColor=#00CC00;" parent="1" source="36" target="34" edge="1">
                    <mxGeometry relative="1" as="geometry"/>
                </mxCell>
                <mxCell id="36" value="SKB" style="rounded=0;whiteSpace=wrap;html=1;" parent="1" vertex="1">
                    <mxGeometry x="414" y="625" width="100" height="36" as="geometry"/>
                </mxCell>
                <mxCell id="37" value="Network Device" style="rounded=0;whiteSpace=wrap;html=1;" parent="1" vertex="1">
                    <mxGeometry x="420" y="725" width="100" height="36" as="geometry"/>
                </mxCell>
                <mxCell id="39" value="" style="endArrow=none;dashed=1;html=1;dashPattern=1 3;strokeWidth=2;" parent="1" edge="1">
                    <mxGeometry width="50" height="50" relative="1" as="geometry">
                        <mxPoint x="120" y="540" as="sourcePoint"/>
                        <mxPoint x="620" y="540" as="targetPoint"/>
                    </mxGeometry>
                </mxCell>
                <mxCell id="40" value="User Context" style="text;html=1;align=center;verticalAlign=middle;resizable=0;points=[];autosize=1;fontStyle=1" parent="1" vertex="1">
                    <mxGeometry x="110" y="520" width="90" height="20" as="geometry"/>
                </mxCell>
                <mxCell id="41" value="Kernal Context" style="text;html=1;align=center;verticalAlign=middle;resizable=0;points=[];autosize=1;fontStyle=1" parent="1" vertex="1">
                    <mxGeometry x="110" y="540" width="100" height="20" as="geometry"/>
                </mxCell>
            </root>
        </mxGraphModel>
    </diagram>
</mxfile>